<svg width="24" height="24" viewBox="0 0 24 24" fill="none" xmlns="http://www.w3.org/2000/svg">
<mask id="mask0_431_5651" style="mask-type:alpha" maskUnits="userSpaceOnUse" x="0" y="0" width="24" height="24">
<rect y="24" width="24" height="24" transform="rotate(-90 0 24)" fill="#D9D9D9"/>
</mask>
<g mask="url(#mask0_431_5651)">
<path d="M11.0206 20C10.7373 20 10.4998 19.9042 10.3081 19.7125C10.1164 19.5208 10.0206 19.2833 10.0206 19V13L4.22059 5.6C3.97059 5.26667 3.93309 4.91667 4.10809 4.55C4.28309 4.18333 4.58725 4 5.02059 4H19.0206C19.4539 4 19.7581 4.18333 19.9331 4.55C20.1081 4.91667 20.0706 5.26667 19.8206 5.6L14.0206 13V19C14.0206 19.2833 13.9248 19.5208 13.7331 19.7125C13.5414 19.9042 13.3039 20 13.0206 20H11.0206ZM12.0206 12.3L16.9706 6H7.07059L12.0206 12.3Z" fill="#1E1E1E"/>
</g>
</svg>
